<svg xmlns="http://www.w3.org/2000/svg" viewBox="12 12 232 232"><defs><linearGradient id="g" x1="24" y1="16" x2="232" y2="240" gradientUnits="userSpaceOnUse"><stop offset="0" stop-color="#536dfe"/><stop offset="1" stop-color="#00a6a6"/></linearGradient></defs><path d="M134.10 28.19A100 100 0 0 1 202.23 60.99" fill="none" stroke="url(#g)" stroke-width="32" stroke-linecap="butt"/><path d="M209.84 70.54A100 100 0 0 1 226.67 144.26" fill="none" stroke="url(#g)" stroke-width="32" stroke-linecap="butt"/><path d="M223.95 156.16A100 100 0 0 1 176.81 215.28" fill="none" stroke="url(#g)" stroke-width="32" stroke-linecap="butt"/><path d="M165.81 220.58A100 100 0 0 1 90.19 220.58" fill="none" stroke="url(#g)" stroke-width="32" stroke-linecap="butt"/><path d="M79.19 215.28A100 100 0 0 1 32.05 156.16" fill="none" stroke="url(#g)" stroke-width="32" stroke-linecap="butt"/><path d="M29.33 144.26A100 100 0 0 1 46.16 70.54" fill="none" stroke="url(#g)" stroke-width="32" stroke-linecap="butt"/><path d="M53.77 60.99A100 100 0 0 1 121.90 28.19" fill="none" stroke="url(#g)" stroke-width="32" stroke-linecap="butt"/><path d="M29.33 144.26A100 100 0 0 1 46.16 70.54" fill="none" stroke="#ffb74d" stroke-width="32"/><path d="M53.77 60.99A100 100 0 0 1 121.90 28.19" fill="none" stroke="#ffb74d" stroke-width="32"/><path d="M223.48 98.26A100 100 0 0 1 226.67 144.26" fill="none" stroke="#ffb74d" stroke-width="32"/><path d="M135.75 227.70A100 100 0 0 1 90.19 220.58" fill="none" stroke="#ffb74d" stroke-width="32"/><circle cx="128" cy="128" r="58" fill="url(#g)"/><path d="M128 128V92M128 128l26 16" stroke="#fff" stroke-width="12" stroke-linecap="round"/><circle cx="128" cy="128" r="9" fill="#fff"/></svg>